<?xml version="1.0" encoding="UTF-8"?>
<svg width="1490px" height="256px" viewBox="0 0 1490 256" version="1.1" xmlns="http://www.w3.org/2000/svg" xmlns:xlink="http://www.w3.org/1999/xlink">
    <!-- Generator: Sketch 63.1 (92452) - https://sketch.com -->
    <title>DevcashLogo-Light</title>
    <desc>Created with Sketch.</desc>
    <g id="Page-1" stroke="none" stroke-width="1" fill="none" fill-rule="evenodd">
        <g id="DevcashLogo-Light">
            <g transform="translate(0.000000, -0.000000)" id="Combined-Shape">
                <path d="M132,1.8189894e-12 C132,16 120,28 104,28 L76,28 C65,28 56,37 56,48 L56,84 C56,105.333333 48,120 32,128 C48,136 56,150.666667 56,172 L56,208 C56,219 65,228 76,228 L92,228 C92,244 80,256 64,256 C44,256 28,240 28,220 L27.9972,178 C27.9990667,154 18.6666667,137.333333 0,128 C18.6666667,118.666667 27.9998966,102 27.9996898,78 L28,36 C28,16 44,1.8189894e-12 64,1.8189894e-12 L132,1.8189894e-12 Z M151.189057,2.09521955 C210.811385,13.0058445 256,65.225739 256,128 C256,198.692448 198.692448,256 128,256 C120.753062,256 113.646787,255.397753 106.728492,254.240577 L151.189057,2.09521955 Z" fill="#675CFF"></path>
                <path d="M491,1.70530257e-13 L491.2,235.52 L449.92,235.52 L449.92,216.64 C437.76,232.213333 420.48,240 398.08,240 C376.533333,240 358.133333,231.84 342.88,215.52 C327.626667,199.2 320,179.2 320,155.52 C320,131.84 327.626667,111.84 342.88,95.52 C358.133333,79.2 376.533333,71.04 398.08,71.04 C420.244211,71.04 437.395643,78.6635996 449.534298,93.9107989 L449.92,94.4 L449.807457,41.2799074 L449.807365,41.192635 C449.807365,18.4425709 468.249936,1.74709376e-13 491,1.70530257e-13 Z M591.68,71.04 C615.146667,71.04 634.506667,79.1466667 649.76,95.36 C665.013333,111.573333 672.64,131.626667 672.64,155.52 C672.64,160.52 672.17125,165.80125 671.23375,171.36375 L671.04,172.48 L550.4,172.48 L550.569248,173.078592 C556.248416,192.732864 571.232,202.56 595.52,202.56 C611.093333,202.56 622.929749,197.369837 631.029248,186.989511 L631.36,186.56 L664.64,205.76 L664.16416,206.441376 C648.38752,228.813792 625.2928,240 594.88,240 C568.426667,240 547.2,232 531.2,216 C515.2,200 507.2,179.84 507.2,155.52 C507.2,131.413333 515.093333,111.306667 530.88,95.2 C546.666667,79.0933333 566.933333,71.04 591.68,71.04 Z M925.76,71.04 C941.333333,71.04 955.52,74.7733333 968.32,82.24 C981.12,89.7066667 990.826667,99.7333333 997.44,112.32 L997.44,112.32 L961.92,133.12 L961.641665,132.556539 C958.441317,126.209132 953.680762,121.170286 947.36,117.44 C940.853333,113.6 933.546667,111.68 925.44,111.68 C913.066667,111.68 902.826667,115.786667 894.72,124 C886.613333,132.213333 882.56,142.72 882.56,155.52 C882.56,168.106667 886.613333,178.506667 894.72,186.72 C902.826667,194.933333 913.066667,199.04 925.44,199.04 C933.76,199.04 941.173333,197.173333 947.68,193.44 C954.186667,189.706667 959.04,184.533333 962.24,177.92 L962.24,177.92 L998.08,198.4 L997.685926,199.09668 C990.671605,211.35914 980.882963,221.206914 968.32,228.64 C955.52,236.213333 941.333333,240 925.76,240 C901.653333,240 881.546667,231.893333 865.44,215.68 C849.333333,199.466667 841.28,179.413333 841.28,155.52 C841.28,131.626667 849.333333,111.573333 865.44,95.36 C881.546667,79.1466667 901.653333,71.04 925.76,71.04 Z M1083.84,71.04 C1106.00421,71.04 1123.26008,78.6635996 1135.6076,93.9107989 L1136,94.4 L1136,75.52 L1177.28,75.52 L1177.28,235.52 L1136,235.52 L1136,216.64 L1135.6076,217.129201 C1123.26008,232.3764 1106.00421,240 1083.84,240 C1062.50667,240 1044.21333,231.84 1028.96,215.52 C1013.70667,199.2 1006.08,179.2 1006.08,155.52 C1006.08,131.84 1013.70667,111.84 1028.96,95.52 C1044.21333,79.2 1062.50667,71.04 1083.84,71.04 Z M1260.8,71.04 C1273.81333,71.04 1285.65333,73.9733333 1296.32,79.84 C1306.98667,85.7066667 1315.41333,94.08 1321.6,104.96 L1321.6,104.96 L1286.4,124.16 L1286.18469,123.709815 C1281.0423,113.129938 1272.58074,107.84 1260.8,107.84 C1255.46667,107.84 1251.04,109.013333 1247.52,111.36 C1244,113.706667 1242.24,116.906667 1242.24,120.96 C1242.24,125.226667 1245.06667,128.693333 1250.72,131.36 C1256.37333,134.026667 1263.25333,136.373333 1271.36,138.4 C1279.46667,140.426667 1287.57333,142.986667 1295.68,146.08 C1303.78667,149.173333 1310.66667,154.346667 1316.32,161.6 C1321.97333,168.853333 1324.8,177.92 1324.8,188.8 C1324.8,205.226667 1318.66667,217.866667 1306.4,226.72 C1294.13333,235.573333 1278.82667,240 1260.48,240 C1227.62667,240 1205.22667,227.306667 1193.28,201.92 L1193.28,201.92 L1229.12,181.76 L1229.2734,182.204907 C1234.0388,195.774969 1244.441,202.56 1260.48,202.56 C1275.2,202.56 1282.56,197.973333 1282.56,188.8 C1282.56,184.533333 1279.73333,181.066667 1274.08,178.4 C1268.42667,175.733333 1261.54667,173.333333 1253.44,171.2 C1245.33333,169.066667 1237.22667,166.4 1229.12,163.2 C1221.01333,160 1214.13333,154.933333 1208.48,148 C1202.82667,141.066667 1200,132.373333 1200,121.92 C1200,106.133333 1205.81333,93.7066667 1217.44,84.64 C1229.06667,75.5733333 1243.52,71.04 1260.8,71.04 Z M718.08,75.52 L756.8,187.52 L795.84,75.52 L841.28,75.52 L780.48,235.52 L733.44,235.52 L672.64,75.52 L718.08,75.52 Z M1340.48,-3.97903932e-13 L1341.16281,0.00552864129 C1363.65202,0.369952085 1381.77601,18.7040042 1381.79534,41.2799849 L1381.79534,41.2799849 L1381.84,93.44 C1391.86667,78.5066667 1407.76,71.04 1429.52,71.04 C1447.01333,71.04 1461.46667,76.9066667 1472.88,88.64 C1484.29333,100.373333 1490,116.586667 1490,137.28 L1490,137.28 L1490,235.52 L1448.72,235.52 L1448.72,142.4 C1448.72,131.733333 1445.84,123.573333 1440.08,117.92 C1434.32,112.266667 1426.64,109.44 1417.04,109.44 C1406.37333,109.44 1397.84,112.746667 1391.44,119.36 C1385.04,125.973333 1381.84,135.893333 1381.84,149.12 L1381.84,149.12 L1381.84,235.52 L1340.56,235.52 L1340.48,-3.97903932e-13 Z M405.76,110.4 C392.96,110.4 382.346667,114.613333 373.92,123.04 C365.493333,131.466667 361.28,142.293333 361.28,155.52 C361.28,168.746667 365.44,179.626667 373.76,188.16 C382.293333,196.48 392.96,200.64 405.76,200.64 C418.56,200.64 429.12,196.426667 437.44,188 C445.76,179.573333 449.92,168.746667 449.92,155.52 C449.92,142.293333 445.76,131.466667 437.44,123.04 C429.12,114.613333 418.56,110.4 405.76,110.4 Z M1091.52,110.4 C1078.72,110.4 1068.16,114.613333 1059.84,123.04 C1051.52,131.466667 1047.36,142.293333 1047.36,155.52 C1047.36,168.746667 1051.52,179.626667 1059.84,188.16 C1068.16,196.48 1078.72,200.64 1091.52,200.64 C1104.32,200.64 1114.93333,196.426667 1123.36,188 C1131.78667,179.573333 1136,168.746667 1136,155.52 C1136,142.293333 1131.78667,131.466667 1123.36,123.04 C1114.93333,114.613333 1104.32,110.4 1091.52,110.4 Z M591.68,108.16 C580.586667,108.16 571.413333,110.986667 564.16,116.64 C557.054694,122.177959 552.303607,129.916601 549.906739,139.855927 L549.76,140.48 L631.36,140.48 C629.013333,129.6 624.16,121.493333 616.8,116.16 C609.44,110.826667 601.066667,108.16 591.68,108.16 Z" fill="#F2F1FF"></path>
            </g>
        </g>
    </g>
</svg>