<?xml version="1.0" encoding="UTF-8"?>
<svg width="585px" height="408px" viewBox="0 0 585 408" version="1.1" xmlns="http://www.w3.org/2000/svg" xmlns:xlink="http://www.w3.org/1999/xlink">
    <!-- Generator: Sketch 63.1 (92452) - https://sketch.com -->
    <title>DevcashLogo-Vertical-Dark</title>
    <desc>Created with Sketch.</desc>
    <g id="Page-1" stroke="none" stroke-width="1" fill="none" fill-rule="evenodd">
        <g id="DevcashLogo-Vertical-Dark">
            <g transform="translate(0.000000, 0.000000)" id="Combined-Shape">
                <path d="M296.5,0 C296.5,16 284.5,28 268.5,28 L240.5,28 C229.5,28 220.5,37 220.5,48 L220.5,84 C220.5,105.333333 212.5,120 196.5,128 C212.5,136 220.5,150.666667 220.5,172 L220.5,208 C220.5,219 229.5,228 240.5,228 L256.5,228 C256.5,244 244.5,256 228.5,256 C208.5,256 192.5,240 192.5,220 L192.4972,178 C192.499067,154 183.166667,137.333333 164.5,128 C183.166667,118.666667 192.499897,102 192.49969,78 L192.5,36 C192.5,16 208.5,0 228.5,0 L296.5,0 Z M315.689057,2.09521955 C375.311385,13.0058445 420.5,65.225739 420.5,128 C420.5,198.692448 363.192448,256 292.5,256 C285.253062,256 278.146787,255.397753 271.228492,254.240577 L315.689057,2.09521955 Z" fill="#675CFF"></path>
                <path d="M85.5,288 L85.6,405.76 L64.96,405.76 L64.96,396.32 C58.88,404.106667 50.24,408 39.04,408 C28.2666667,408 19.0666667,403.92 11.44,395.76 C3.81333333,387.6 1.42108547e-14,377.6 1.42108547e-14,365.76 C1.42108547e-14,353.92 3.81333333,343.92 11.44,335.76 C19.0666667,327.6 28.2666667,323.52 39.04,323.52 C50.0501695,323.52 58.5863832,327.282474 64.6486412,334.807423 L64.96,335.2 L64.9037287,308.639954 L64.9036825,308.596318 C64.9036825,297.221285 74.1249679,288 85.5,288 Z M135.84,323.52 C147.573333,323.52 157.253333,327.573333 164.88,335.68 C172.506667,343.786667 176.32,353.813333 176.32,365.76 C176.32,368.184242 176.099614,370.740716 175.658843,373.429421 L175.52,374.24 L115.2,374.24 L115.310454,374.628113 C118.169459,384.396038 125.652641,389.28 137.76,389.28 C145.488889,389.28 151.376944,386.723287 155.424167,381.609861 L155.68,381.28 L172.32,390.88 L172.006482,391.327562 C164.120055,402.442521 152.597895,408 137.44,408 C124.213333,408 113.6,404 105.6,396 C97.6,388 93.6,377.92 93.6,365.76 C93.6,353.706667 97.5466667,343.653333 105.44,335.6 C113.333333,327.546667 123.466667,323.52 135.84,323.52 Z M302.88,323.52 C310.666667,323.52 317.76,325.386667 324.16,329.12 C330.56,332.853333 335.413333,337.866667 338.72,344.16 L338.72,344.16 L320.96,354.56 C319.36,351.253333 316.933333,348.64 313.68,346.72 C310.426667,344.8 306.773333,343.84 302.72,343.84 C296.533333,343.84 291.413333,345.893333 287.36,350 C283.306667,354.106667 281.28,359.36 281.28,365.76 C281.28,372.053333 283.306667,377.253333 287.36,381.36 C291.413333,385.466667 296.533333,387.52 302.72,387.52 C306.88,387.52 310.586667,386.586667 313.84,384.72 C317.093333,382.853333 319.52,380.266667 321.12,376.96 L321.12,376.96 L339.04,387.2 C335.52,393.493333 330.56,398.533333 324.16,402.32 C317.76,406.106667 310.666667,408 302.88,408 C290.826667,408 280.773333,403.946667 272.72,395.84 C264.666667,387.733333 260.64,377.706667 260.64,365.76 C260.64,353.813333 264.666667,343.786667 272.72,335.68 C280.773333,327.573333 290.826667,323.52 302.88,323.52 Z M381.92,323.52 C392.930169,323.52 401.517924,327.282474 407.683263,334.807423 L408,335.2 L408,325.76 L428.64,325.76 L428.64,405.76 L408,405.76 L408,396.32 L407.683263,396.712577 C401.517924,404.237526 392.930169,408 381.92,408 C371.253333,408 362.106667,403.92 354.48,395.76 C346.853333,387.6 343.04,377.6 343.04,365.76 C343.04,353.92 346.853333,343.92 354.48,335.76 C362.106667,327.6 371.253333,323.52 381.92,323.52 Z M470.4,323.52 C476.906667,323.52 482.826667,324.986667 488.16,327.92 C493.493333,330.853333 497.706667,335.04 500.8,340.48 L500.8,340.48 L483.2,350.08 L483.037778,349.743542 C480.461481,344.527847 476.248889,341.92 470.4,341.92 C467.733333,341.92 465.52,342.506667 463.76,343.68 C462,344.853333 461.12,346.453333 461.12,348.48 C461.12,350.613333 462.533333,352.346667 465.36,353.68 C468.186667,355.013333 471.626667,356.186667 475.68,357.2 C479.733333,358.213333 483.786667,359.493333 487.84,361.04 C491.893333,362.586667 495.333333,365.173333 498.16,368.8 C500.986667,372.426667 502.4,376.96 502.4,382.4 C502.4,390.613333 499.333333,396.933333 493.2,401.36 C487.066667,405.786667 479.413333,408 470.24,408 C453.813333,408 442.613333,401.653333 436.64,388.96 L436.64,388.96 L454.56,378.88 L454.683948,379.235529 C457.087753,385.931843 462.273103,389.28 470.24,389.28 C477.6,389.28 481.28,386.986667 481.28,382.4 C481.28,380.266667 479.866667,378.533333 477.04,377.2 C474.213333,375.866667 470.773333,374.666667 466.72,373.6 C462.666667,372.533333 458.613333,371.2 454.56,369.6 C450.506667,368 447.066667,365.466667 444.24,362 C441.413333,358.533333 440,354.186667 440,348.96 C440,341.066667 442.906667,334.853333 448.72,330.32 C454.533333,325.786667 461.76,323.52 470.4,323.52 Z M199.04,325.76 L218.4,381.76 L237.92,325.76 L260.64,325.76 L230.24,405.76 L206.72,405.76 L176.32,325.76 L199.04,325.76 Z M510.24,288 L510.58836,288.002878 C521.829745,288.188756 530.888009,297.354329 530.897671,308.639992 L530.897671,308.639992 L530.92,334.72 C535.933333,327.253333 543.88,323.52 554.76,323.52 C563.506667,323.52 570.733333,326.453333 576.44,332.32 C582.146667,338.186667 585,346.293333 585,356.64 L585,356.64 L585,405.76 L564.36,405.76 L564.36,359.2 C564.36,353.866667 562.92,349.786667 560.04,346.96 C557.16,344.133333 553.32,342.72 548.52,342.72 C543.186667,342.72 538.92,344.373333 535.72,347.68 C532.52,350.986667 530.92,355.946667 530.92,362.56 L530.92,362.56 L530.92,405.76 L510.28,405.76 L510.24,288 Z M42.88,343.2 C36.48,343.2 31.1733333,345.306667 26.96,349.52 C22.7466667,353.733333 20.64,359.146667 20.64,365.76 C20.64,372.373333 22.72,377.813333 26.88,382.08 C31.1466667,386.24 36.48,388.32 42.88,388.32 C49.28,388.32 54.56,386.213333 58.72,382 C62.88,377.786667 64.96,372.373333 64.96,365.76 C64.96,359.146667 62.88,353.733333 58.72,349.52 C54.56,345.306667 49.28,343.2 42.88,343.2 Z M385.76,343.2 C379.36,343.2 374.08,345.306667 369.92,349.52 C365.76,353.733333 363.68,359.146667 363.68,365.76 C363.68,372.373333 365.76,377.813333 369.92,382.08 C374.08,386.24 379.36,388.32 385.76,388.32 C392.16,388.32 397.466667,386.213333 401.68,382 C405.893333,377.786667 408,372.373333 408,365.76 C408,359.146667 405.893333,353.733333 401.68,349.52 C397.466667,345.306667 392.16,343.2 385.76,343.2 Z M135.84,342.08 C130.293333,342.08 125.706667,343.493333 122.08,346.32 C118.570323,349.055484 116.209448,352.864849 114.997378,357.748096 L114.88,358.24 L155.68,358.24 C154.506667,352.8 152.08,348.746667 148.4,346.08 C144.72,343.413333 140.533333,342.08 135.84,342.08 Z" fill="#010014"></path>
            </g>
        </g>
    </g>
</svg>