<?xml version="1.0" encoding="UTF-8"?>
<svg width="256px" height="256px" viewBox="0 0 256 256" version="1.1" xmlns="http://www.w3.org/2000/svg" xmlns:xlink="http://www.w3.org/1999/xlink">
    <!-- Generator: Sketch 63.1 (92452) - https://sketch.com -->
    <title>DevcashAvatar-Circle-BlueOnWhite</title>
    <desc>Created with Sketch.</desc>
    <g id="Page-1" stroke="none" stroke-width="1" fill="none" fill-rule="evenodd">
        <g id="DevcashAvatar-Circle-BlueOnWhite" transform="translate(-0.000000, 0.000000)">
            <g>
                <circle id="bg" fill="#ece8e8" cx="128" cy="128" r="128"></circle>
                <path d="M130.25,56 C130.25,65 123.5,71.75 114.5,71.75 L98.75,71.75 C92.5625,71.75 87.5,76.8125 87.5,83 L87.5,103.25 C87.5,115.25 83,123.5 74,128 C83,132.5 87.5,140.75 87.5,152.75 L87.5,173 C87.5,179.1875 92.5625,184.25 98.75,184.25 L107.75,184.25 C107.75,193.25 101,200 92,200 C80.75,200 71.75,191 71.75,179.75 L71.748425,156.125 C71.749475,142.625 66.5,133.25 56,128 C66.5,122.75 71.7499418,113.375 71.7498255,99.875 L71.75,76.25 C71.75,65 80.75,56 92,56 L130.25,56 Z M141.043845,57.178561 C174.581404,63.3157875 200,92.6894782 200,128 C200,167.764502 167.764502,200 128,200 C123.923597,200 119.926318,199.661236 116.034777,199.010324 L141.043845,57.178561 Z" id="DevcashMark-Blue" fill="#675CFF"></path>
            </g>
        </g>
    </g>
</svg>