<?xml version="1.0" encoding="UTF-8" standalone="no"?>
<svg
   xmlns:dc="http://purl.org/dc/elements/1.1/"
   xmlns:cc="http://creativecommons.org/ns#"
   xmlns:rdf="http://www.w3.org/1999/02/22-rdf-syntax-ns#"
   xmlns:svg="http://www.w3.org/2000/svg"
   xmlns="http://www.w3.org/2000/svg"
   viewBox="0 0 800 200"
   height="200"
   width="800"
   xml:space="preserve"
   version="1.1"
   id="svg4165"><metadata
     id="metadata4171"><rdf:RDF><cc:Work
         rdf:about=""><dc:format>image/svg+xml</dc:format><dc:type
           rdf:resource="http://purl.org/dc/dcmitype/StillImage" /><dc:title></dc:title></cc:Work></rdf:RDF></metadata><defs
     id="defs4169"><clipPath
       id="clipPath4179"
       clipPathUnits="userSpaceOnUse"><path
         id="path4181"
         d="M 0,160 640,160 640,0 0,0 0,160 Z" /></clipPath></defs><g
     transform="matrix(1.25,0,0,-1.25,0,200)"
     id="g4173"><g
       id="g4175"><g
         clip-path="url(#clipPath4179)"
         id="g4177"><g
           transform="translate(621.4307,21.9697)"
           id="g4183"><path
             id="path4185"
             style="fill:#000000;fill-opacity:1;fill-rule:nonzero;stroke:none"
             d="m 0,0 0,15.618 -10.832,0 0,12.112 -15.252,0 -0.078,24.562 -2.165,0 0,-24.562 -9.248,0 0,-12.112 -8.332,0 0,-11.155 -9.58,0 0,11.475 -11.246,0 0,9.242 -16.663,11.475 -18.744,0 0,-22.186 -11.74,0 0,32.389 -6.308,0 0,8.985 -2.12,0 c 0,0 0.212,8.56 -5.831,13.012 l 0,7.202 c -0.051,2.444 -0.879,3.61 -1.854,3.61 -0.976,0 -1.855,-1.377 -1.855,-3.61 l 0,-7.202 c -6.043,-4.452 -5.83,-13.012 -5.83,-13.012 l -1.592,0 0,22.588 -1.801,0.495 c -0.636,10.813 -8.798,16.96 -10.071,17.914 -1.272,0.954 -1.696,2.227 -1.696,3.181 l 0,8.798 c 0,4.453 -2.756,6.361 -2.756,6.361 0,0 -2.756,-1.908 -2.756,-6.361 0.238,-8.772 0,-8.747 0,-8.798 0,-0.954 -0.423,-2.227 -1.696,-3.181 -1.272,-0.954 -9.435,-7.101 -10.071,-17.914 l -1.802,-0.495 0,-22.588 -1.589,0 c 0,0 0.212,8.56 -5.832,13.012 l 0,7.202 c 0,2.233 -0.879,3.61 -1.853,3.61 -0.977,0 -1.804,-1.166 -1.857,-3.61 l 0,-7.202 c -6.042,-4.452 -5.83,-13.012 -5.83,-13.012 l -2.12,0 0,-8.985 -6.308,0 0,-12.415 -14.846,0 0,16.875 -14.89,0 0,-6.376 -12.229,0 0,3.826 -15.694,0 0,11.474 -8.392,0 0,11.373 c 0,1.058 -1.645,1.06 -1.645,0 l 0,-11.373 -8.345,0 0,-11.474 -17.399,0 0,-7.65 -14.357,0 0,13.576 -9.856,0 0,10.811 c 0,1.058 -1.645,1.06 -1.645,0 l 0,-10.811 -9.769,0 0,-21.047 -10.103,0 0,16.582 -20.041,-9.635 0,-17.963 -17.744,0 0,5.221 -12.23,0 0,-26.065 -16.098,0 0,11.58 -16.484,0 0,-8.724 -12.763,0 0,-17.033 -10.636,0 0,19.817 -11.698,0 0,-5.384 -19.675,0 0,10.769 -19.143,0 0,-16.921 -11.838,0 c 0,0 -3.592,3.49 -7.776,13.877 l 1.406,1.215 -0.099,4.068 -3.275,0.037 c -5.321,15.613 -10.837,42.627 -10.837,87.53 0,0 -0.49,5.295 -1.79,6.799 0.066,0.112 0.114,0.241 0.114,0.404 l 0,12.569 c 0,1.059 -1.645,1.061 -1.645,0 l 0,-12.569 c 0,-0.163 0.047,-0.292 0.113,-0.404 -1.3,-1.504 -1.79,-6.799 -1.79,-6.799 0,-44.917 -5.52,-71.935 -10.842,-87.546 l -3.565,-0.021 0,-4.264 1.585,-1.057 c -4.176,-10.358 -7.759,-13.839 -7.759,-13.839 l -6.154,0 0,5.875 -18.046,0 0,-9.87 -14.924,0 0,14.334 -31.319,0 0,-28.2 640.167,0 L 18.569,0.12 0,0 Z" /></g></g></g></g></svg>