<?xml version="1.0" encoding="utf-8"?>
<svg version="1.1" id="Layer_1" xmlns="http://www.w3.org/2000/svg" xmlns:xlink="http://www.w3.org/1999/xlink" x="0px" y="0px"
	 viewBox="0 0 2643.903 1304.492" enable-background="new 0 0 2643.903 1304.492" xml:space="preserve">
<path d="M43.369,909.711l217.171-1.762l28.193-584.114l27.311,1.762l16.739-90.745l65.195,48.456v3.689l6.938,0.661v-6.277
	c0,0,94.819,16.354,100.105,22.136l13.05,8.755l-15.528,522.002l16.519,0.496l2.643-178.406l10.903-7.434l-0.496-10.242l7.103-3.139
	l7.764,2.313l1.652-63.433l13.215-17.18l9.251-289.579h12.72v-4.46l77.474-0.661l1.817-3.139l10.903-0.826l46.253,34.525
	l-5.451,190.134h20.649v-5.286l2.808-2.643l17.675,0.826v9.251h5.616l0.496,89.368h12.224l-0.826,25.109l10.737,25.274
	l-1.487,176.919l4.295,0.496l1.982-279.172l18.667-13.711l76.814,5.121v46.584h5.121l-3.469,4.625c0,0,7.599,42.289,7.103,60.129
	l6.608,0.165v3.469h5.121v99.61h11.729v-65.25l12.224,0.33l-10.242-2.973l31.056-39.315l24.118,32.543l30.725,0.661l23.953-2.808
	l0.661-91.681l32.543-7.599l35.186,4.13l0.991-152.801c0,0-7.929-2.973,0-6.277l-0.33-7.599c0,0-8.26-3.965,0.33-8.094l-0.165-17.51
	c0,0-6.277-2.147,0-4.791l-0.33-24.779h-2.147v-5.947h3.304c0,0-0.496-5.286,2.643-5.451c3.139-0.165,1.817,5.947,1.817,5.947h2.313
	v6.277h-2.973v24.448c0,0,5.947,1.156-0.165,3.965l-0.165,16.519c0,0,16.189-4.956,45.427-1.982l11.729,1.817l1.322-156.766
	l6.442-9.581h3.799l-0.661-8.425l4.791-1.322l-0.826-8.92l4.791-1.156v-10.903l60.625,0.991l0.496,12.224l3.965,1.982l0.826,7.434
	l4.295,2.147l-0.495,8.094l4.956,0.991l5.121,9.251l-0.826,202.028l5.286,13.546l0.991,27.752l64.259,10.242l33.369-20.979
	l-1.487-186.831h3.634l-0.33-11.729l51.044,1.652l0.165-11.894h6.277v12.059l39.15-0.165l-0.165-12.389h5.947v13.546h44.436
	l1.982,97.628l24.118-8.26v-65.581l55.669-9.911l-1.817-161.391l24.779-51.209l4.956,1.322l-0.495-29.569h2.478l3.139,31.386
	l59.469,23.292l3.139,132.648l128.023-5.782l6.773,178.901l32.047,1.156l1.817,44.932l11.398,3.139l2.148,81.274l7.929,1.817
	l4.295,187.491l30.395-0.991L1900.057,297.9l13.711-2.313l-4.625-125.71l9.251-3.469l-2.313-42.289l6.112-4.295l-0.661-6.442
	l17.18-11.894h57.486v-7.434h10.737v8.59h11.398v58.973l6.277,4.625l0.496,4.956l4.13,1.322l4.13,121.58l13.546,4.956l1.982,92.011
	l46.418,5.947l2.478,76.483h5.781v-9.085l15.032,0.165l0.33,9.085l49.392,4.46l-0.496-8.094h12.72l12.389,276.199h9.746l0.826,6.277
	l3.634,0.661l0.165-4.46h2.643l-0.165-11.894l15.363-1.817l-0.826-3.634l4.13-1.322l-6.112-149.332l124.884-22.301l60.294,3.634
	l3.304,81.935l24.118,1.817l9.912,187.326l14.206,0.826l-3.799-88.377l5.121-2.973l-0.496-5.451l104.566,0.991l0.33,6.277h7.434
	l0.496,4.295h2.973l2.973,68.389h23.292v450.333h-2560C41.951,1267.428,43.369,905.816,43.369,909.711z"/>
</svg>
