<?xml version="1.0" encoding="utf-8"?>

<!DOCTYPE svg PUBLIC "-//W3C//DTD SVG 1.1//EN" "http://www.w3.org/Graphics/SVG/1.1/DTD/svg11.dtd">
<svg version="1.1" id="Layer_1" xmlns="http://www.w3.org/2000/svg" xmlns:xlink="http://www.w3.org/1999/xlink" x="0px" y="0px"
	 viewBox="0 0 2608 760" enable-background="new 0 0 2608 760" xml:space="preserve">
<path d="M24,297.57h56.955l6.429-185.082c0,0,65.829-2.626,87.108,4.527l-3.26,148.41h39.298v3.894h17.748v10.685h7.425
	l2.716-116.537c0,0,7.516,3.531,4.437,10.413h12.677v2.626h3.894v1.72h16.208v4.256h26.44l2.988-47.9h-3.26v-7.334l7.968-4.165
	h17.657l2.173-58.947l12.224-7.153l60.215,4.618c0,0-1.63,121.426-1.358,121.336c0.272-0.091,10.775,0,10.775,0v59.491h7.787V231.56
	h4.256l2.988-148.048l6.067-2.354l-0.091-12.224l6.52-1.539l-0.091-11.952l17.748-25.263l29.519-16.842l19.106,31.42v17.476h4.98
	v16.752h4.165l-1.811,67.55l47.357,1.63v14.126h4.437v13.13h4.98v13.582h3.713v3.35h16.389l13.13,9.508v51.341h7.425v5.705h30.424
	l1.087-44.188l6.519-0.091L650.78,93.02l23.362-7.606h8.421l2.354-2.354h19.015v6.52l22.003,0.543l-1.902,149.315h26.984v6.791
	h4.799v5.342h8.693l1.72-111.466h7.334v-9.87h5.886v-10.956h3.758v-2.807h2.626v-2.581h3.033v-2.671h2.943v-2.49h3.033v-2.716h2.309
	v-2.128h3.124v-2.671h2.4v-5.207h4.12v5.523h1.811v2.445h2.943v1.992h3.124v2.535h2.852v2.988h2.898v1.63h2.4c0,0-0.136,2.49,0,2.49
	c0.136,0,3.396,0,3.396,0v2.535h2.852v10.096h5.388c0,0,0.091,14.533,0,14.443c-0.091-0.091,6.157,0,6.157,0l-1.268,74.793h9.372
	v-3.214h3.531v3.26h34.001c0,0-0.498,8.512,0,8.512c0.498,0,7.606,0,7.606,0v23.814h6.248v-56.638h4.618v-13.356l16.797-2.581
	h14.261v-3.26h5.342v3.033h17.25v-9.96h4.527v10.685h28.523v74.658h8.964l57.272,7.516v7.47h-9.146v6.429h2.581v3.305h6.882v6.157
	h28.206v-15.62h3.033v6.384h9.372v-5.886h1.494v4.618h4.029v-4.844h38.71v-99.468l-3.305-3.305h-3.214v-2.716l19.604-5.795h8.104
	l3.916,3.916h2.467v-2.784l13.22-2.445v-2.807h-6.972v-4.301l47.312-14.624l50.391,14.624v3.984h-7.063l-2.535,2.535v7.47h-3.622
	v2.898h6.882l7.606-5.433h10.866l16.842,6.157v2.626h-2.988v1.856h-1.72l1.222,111.737h6.021v6.384h23.679v-5.071h4.437v-4.392
	h10.821v7.787h4.075v-12.36h5.252v-4.709h4.165v4.346h4.211v-4.165h4.165v3.939h7.968v8.421h5.976v5.342h1.992v3.577h1.72v-25.852
	h7.561v-2.807h6.384v-2.671h5.478v3.531h2.852v1.992h40.294v-3.486h13.356v3.622h7.697v9.87h3.894v-4.98h12.632v-2.807h15.122v3.984
	h8.421v-7.334h8.512v7.199h8.059v-3.26h9.236v-2.218h11.454v2.988h2.807v2.898h1.675l-2.354-95.62h5.116v2.716h3.305v-44.233h2.173
	v-11.771h16.661V91.073l9.553-4.437V77.4l7.425-5.388V64.18h4.12v7.832h7.38V62.46h5.433v9.508h10.368l3.803-3.803v-7.742h3.984
	v7.606h9.055v-9.508h5.207v8.874h3.214V59.97h4.482v7.47l8.874,4.211v4.256h3.486v2.49h7.833v-5.116h3.758v5.886h7.153v-9.508h2.671
	v9.1h5.161v-3.758h4.256v-6.972h5.433v9.779h2.581V69.84h4.437v8.285l8.104,4.437V97.14l9.87,7.244v32.462h15.755v9.1h2.535v37.895
	h11.319l-0.272,54.601c0,0,129.802-13.13,177.974,12.586l-3.894,13.492h14.216l-3.984-87.289l5.161-0.272l-0.362-3.713l5.886,0.272
	c0,0,22.728-15.031,52.609-1.72h4.256v4.709h6.972v3.622c0,0,19.378-10.323,49.44,0.724h5.071l3.531,89.825l15.484,0.091
	l-0.091-20.283h16.933v20.374h45.003v2.716h18.472v3.26h12.043v-49.892h-7.968l-3.033-3.033l10.911-7.47l4.075-9.689h9.87
	l5.252-2.898v-9.779l7.334-3.079l6.248,2.807v9.598h7.968v-6.972l5.433-3.169l6.338,3.169v6.338l59.129-2.264l6.61-4.165v-12.496
	l6.791-4.346l8.421,3.803v13.763h19.921v-14.578l9.236-6.882l10.504,4.98v16.389l72.53-3.079l-2.717-69.723l28.161-17.295
	l36.854-1.72v-5.071l58.404-4.709l9.689,3.35l0.181,5.342l16.299-0.815l-0.181,3.984h8.511l3.079,78.959H2584v560.468H24.543
	L24,297.57z"/>
</svg>
