<?xml version="1.0" encoding="utf-8"?>

<!DOCTYPE svg PUBLIC "-//W3C//DTD SVG 1.1//EN" "http://www.w3.org/Graphics/SVG/1.1/DTD/svg11.dtd">
<svg version="1.1" id="Layer_1" xmlns="http://www.w3.org/2000/svg" xmlns:xlink="http://www.w3.org/1999/xlink" x="0px" y="0px"
	 viewBox="0 0 2632.152 1583.531" enable-background="new 0 0 2632.152 1583.531" xml:space="preserve">
<path d="M2565.532,925.667v-2.618h-37.428v2.812h-5.624v-14.157h-13.284l-0.146-35.343l-19.781-1.406h-17.017v-8.921h3.006v-6.642
	l-27.635-2.23l-36.119,2.667l-25.938-3.2h-73.354v-9.842h-22.835v-11.539h-22.156v-3.2h-11.442v4.218h-12.993v2.86h-12.121v1.648
	h-12.945v2.667h-5.624v7.272h-9.26v-1.551h1.552v-2.424h-2.036v-3.248h2.23v-2.86h-2.375v-3.2h2.375v-2.57h-2.23v-3.491h1.891
	v-2.909h-6.351v-10.424h2.909v-2.957h-2.812v-2.133h-3.975v-1.164h-5.866v2.473h-6.545v-8.872h-18.859v1.697h-4.412v-3.054h-11.345
	v4.994h-2.182v9.842l-21.574,1.454v4.945h9.939v27.635h-7.66v-2.182h-17.938v4.121l-19.393,0.824v11.539l-28.217,1.648
	l1.309,112.333h-14.108v4.606h-4.897v8.921l-33.21,3.782v-6.448h-19.732v2.085h-8.581v5.527h-3.685v-2.327l-3.879-2.182h-6.303
	v1.794h-13.042v4.848l-65.742,2.521v1.842h-1.794v1.794h-3.151v17.308h-3.588v-8.339h-3.345v-4.897h-29.671v-6.303h-4.945v-1.406
	h-5.285v-2.085h3.588v-1.697h-3.685v-1.26h3.491v-2.133h-3.782v-1.939h4.024v-1.988h-3.878v-1.018h4.412v-1.551h-4.17v-1.891h3.685
	v-1.939h-3.685v-1.6h3.636v-1.988h-3.782v-1.988h3.442v-1.115h-3.636v-2.085h4.024v-1.648h-3.83v-1.697h3.879v-1.309h-3.927v-1.697
	h3.685v-2.279h-3.588v-1.067h3.83v-2.133h-3.927v-1.6h3.83v-1.697h-3.782v-1.939h3.636v-1.697h-3.733v-1.939h3.054v-1.697h-3.054
	v-12.315h-18.714l-0.945-100.212l-44.216,2.182l0.073-17.526h-30.616v-9.672h-4.145v-4.8h-5.163v-10.472h-8.072v-18.399h-7.272
	V765.87h-8.945v-9.381h-6.981v-15.417h5.381v-10.908h-6.182v-10.036h-3.709l-2.982,5.745v5.527h-2.909v9.527h3.2v15.417
	l-5.163,1.382v4.436h-11.636l-39.707,5.527l-2.036,71.632h-16.581v-6.327h-9.454v5.309h-7.127v-3.2h-3.345v3.127l-15.563-1.454
	l-0.582-64.724l-28.362-1.236l-5.6-8.872v-54.76l-0.945-2.836l-1.091,2.763v56.215l-7.127,7.127l-25.671,4.291v-27.126
	l-12.072-6.254h-23.126v3.2l-10.69,1.673v-2.327h-2.691l0.073,2.327l-4.945,2.691h-9.381l1.164,172.79h-3.782l-1.745-138.174
	l-73.887-4.363v-1.236h1.6v-0.509h-3.054v-1.6h3.563v-1.745h-10.836v1.891h4.436v2.545l-19.708-0.364l-22.181,4.582v-49.67h3.636
	v-19.853h-3.563v-7.054h-1.454v6.545h-1.382v-5.163h-2.618v4.218h-19.781v-2.4l-4.509-1.164v-62.033h-2.109v61.451h-5.309v-79.486
	h-2.327v78.905h-13.308v-72.163c0.6-0.405,0.994-1.091,0.994-1.869c0-1.245-1.009-2.254-2.255-2.254
	c-1.245,0-2.254,1.009-2.254,2.254c0,0.798,0.417,1.495,1.042,1.896v71.991h-6.109v-6.836h-6.254v7.127h-2.764v-5.309h-4.363v5.745
	l-13.526,4.8h-10.399v-11.49h-1.454v16.29h-2.836v17.163l2.327,2.327v107.776l-14.763,2.836v65.669h-35.562l0.146,4.509
	l-11.708,1.236l-0.218,29.162l-12.727,0.582v-41.525h-1.382v-2.618h-12.872v-11.127h-20.581l-4.582-2.763h-15.926v6.69l-7.563,0.582
	v6.836h-2.691l-16.945,2.763v33.598h-20.217v-14.69h-14.69v-6.4h-24.799v1.527h-2.691v3.854h-2.618l-16.944,2.982v9.381h-46.252
	v32.725l-6.254,0.073l0.873-86.831h-17.454v-10.909h-4.291l-5.818-4.291h-18.472v14.399h-5.091l-2.836,0.582l-0.145-78.977
	l-5.672-7.709l-30.18,9.818l-13.017-1.309v-9.018h7.709v-2.4H815.45v5.091h1.673v-3.127h13.163v12.363h-19.417l-29.889,10.399
	v31.635H746.29v-2.473h-5.236v5.6h-2.4v11.49h-12.799v13.381h-7.418l-21.599,7.927l1.091-99.631l-8-19.635h-3.563V755.47h-35.198
	l-4.582-147.337l-1.891-157.518c21.235-0.655,22.035-6.618,22.035-6.618c12.072-5.963,0.582-18.835,0.582-18.835l6.69-6.472v-13.672
	c1.745-2.691,0.945-7.781,0.945-7.781l-5.6-4l-7.563-9.309c0,0,0.509-7.781,0-13.817c-0.509-6.036-17.454-6.981-17.454-6.981v-8.872
	h2.182l0.073-13.381l-3.491-3.927h-4V217.101c3.491-1.891,2.618-5.091,2.618-5.091h1.964c0,0,1.018-4.945-0.218-8.145
	c-1.236-3.2-7.418-8.945-7.418-8.945v-81.741h-1.964V79.509h-3.345V31.366h-6.472v47.997l-2.982-0.145l-0.436,34.689l-2.036,1.382
	l-0.218,80.316c-0.343,0.293-1.4,1.398-4.291,4.697c-5.672,6.472-2.182,9.018-2.182,9.018c-0.727,2.763,1.527,3.563,1.527,3.563
	c0.291,3.273,3.491,3.345,3.491,3.345v98.176h-2.109v5.018l1.527,1.527v9.309h-2.909v5.963h2.909v1.891h-6.69l0.582,13.527
	l2.327,1.164v10.036c0,0-2.036,0.145-8,0.582c-5.963,0.436-12.217,5.236-12.217,5.236l1.018,14.836l-7.127,8.436l-5.091,2.618
	c-4.218,5.236,0.873,11.345,0.873,11.345l-0.727,7.854c-3.054,8.145,6.545,10.327,6.545,10.327s-8.872,9.163-2.327,17.89
	s24.58,8.872,24.58,8.872l-4.8,165.809l-8.145,174.826L582.808,988.79H572.53V972.5h-0.873l-0.291,15.999l-23.174-0.582l-7.66,1.164
	l-0.485,4.945l-8.824-0.388l-0.873-5.721l-1.454,6.109l-7.078-0.582l-2.327-5.139l-1.067,6.497l-9.696,4.557v-11.151h-26.471V982.1
	h-7.854v-2.521h-6.691v-2.23h-10.715v-55.706h-1.6l-14.545-21.962c0,0-14.981,22.399-15.999,23.853
	c-1.018,1.454-42.325,0.291-42.325,0.291l-12.799,8.145v3.491c-21.381-15.563-79.705-23.271-79.705-23.271v-48.724h-19.926
	l-7.127,4.073l0.145,4.363h-9.309l-1.745-39.561l-1.454-0.145l-0.145,27.344l-8.436,12.363l-5.672-0.291l-4.363,3.054v7.272h-5.236
	v28.071c-56.142,0.873-125.956,36.362-125.956,36.362v-5.818H81.31v7.418h-2.036v-6.545h-5.672v6.691H68.51l-9.599,8.29
	l-0.291,13.672l-22.544,14.981l0.262,567.108h2559.738V927.17L2565.532,925.667z"/>
</svg>
